<?xml version="1.0" encoding="UTF-8"?>
<svg width="32" height="32" viewBox="0 0 32 32" fill="none" xmlns="http://www.w3.org/2000/svg">
  <rect width="32" height="32" rx="8" fill="#F59E0B"/>
  <path d="M16 6C10.48 6 6 10.48 6 16C6 21.52 10.48 26 16 26C21.52 26 26 21.52 26 16C26 10.48 21.52 6 16 6ZM16 24C11.58 24 8 20.42 8 16C8 11.58 11.58 8 16 8C20.42 8 24 11.58 24 16C24 20.42 20.42 24 16 24Z" fill="white"/>
  <path d="M16 10C13.24 10 11 12.24 11 15C11 17.76 13.24 20 16 20C18.76 20 21 17.76 21 15C21 12.24 18.76 10 16 10Z" fill="white"/>
</svg>
